<svg xmlns="http://www.w3.org/2000/svg" viewBox="0 0 1280 640" width="1280" height="640">
  <defs>
    <linearGradient id="pageBg" x1="0" y1="0" x2="0" y2="1">
      <stop offset="0" stop-color="#f5f3ff"/>
      <stop offset="1" stop-color="#ffffff"/>
    </linearGradient>
    <clipPath id="pageClip">
      <rect x="0" y="80" width="880" height="560"/>
    </clipPath>
  </defs>

  <!-- ══ OUTER BACKGROUND ══ -->
  <rect width="1280" height="640" fill="#09090b"/>

  <!-- ══ BROWSER CHROME ══ -->
  <rect width="1280" height="32" fill="#1c1c1e"/>
  <circle cx="20" cy="16" r="5.5" fill="#ff5f57"/>
  <circle cx="38" cy="16" r="5.5" fill="#ffbd2e"/>
  <circle cx="56" cy="16" r="5.5" fill="#28ca42"/>
  <rect x="190" y="8" width="900" height="17" rx="8.5" fill="#2a2a2e"/>
  <text x="640" y="21" text-anchor="middle" fill="#6b7280" font-size="11" font-family="ui-monospace,monospace">localhost:3000</text>

  <!-- ══ EDITOR TOOLBAR ══ -->
  <rect y="32" width="1280" height="48" fill="#18181b"/>
  <line x1="0" y1="79" x2="1280" y2="79" stroke="#27272a" stroke-width="1"/>

  <!-- Brand -->
  <rect x="16" y="47" width="26" height="26" rx="7" fill="#7c3aed"/>
  <text x="29" y="64" text-anchor="middle" fill="white" font-size="13" font-family="ui-sans-serif,sans-serif">✏</text>
  <text x="52" y="64" fill="white" font-size="13" font-weight="600" font-family="ui-sans-serif,sans-serif">AI Editor</text>
  <line x1="106" y1="47" x2="106" y2="75" stroke="#3f3f46"/>

  <!-- Edit Mode button ACTIVE -->
  <rect x="116" y="45" width="132" height="30" rx="8" fill="#7c3aed"/>
  <text x="182" y="64" text-anchor="middle" fill="white" font-size="12" font-weight="500" font-family="ui-sans-serif,sans-serif">✕  Exit Edit Mode</text>
  <text x="262" y="64" fill="#52525b" font-size="11" font-family="ui-sans-serif,sans-serif">Click any element to edit  ·  Esc to exit</text>

  <!-- Right side: provider badge -->
  <rect x="664" y="46" width="180" height="28" rx="14" fill="#27272a" stroke="#3f3f46" stroke-width="1"/>
  <text x="754" y="64" text-anchor="middle" fill="#a1a1aa" font-size="11" font-family="ui-sans-serif,sans-serif">⚙  Groq · llama-3.3-70b</text>

  <!-- Editing indicator -->
  <rect x="856" y="46" width="130" height="28" rx="14" fill="#1e0a3c" stroke="#4c1d95" stroke-width="1"/>
  <circle cx="872" cy="60" r="4" fill="#a78bfa"/>
  <text x="888" y="64" fill="#c4b5fd" font-size="11" font-family="ui-sans-serif,sans-serif">Editing  h1</text>

  <line x1="1000" y1="47" x2="1000" y2="75" stroke="#3f3f46"/>
  <!-- Undo/Redo -->
  <text x="1019" y="65" text-anchor="middle" fill="#71717a" font-size="16">↩</text>
  <text x="1047" y="65" text-anchor="middle" fill="#71717a" font-size="16">↪</text>
  <!-- History -->
  <text x="1093" y="65" text-anchor="middle" fill="#71717a" font-size="12" font-family="ui-sans-serif,sans-serif">⏱  History</text>
  <circle cx="1124" cy="49" r="8" fill="#7c3aed"/>
  <text x="1124" y="53" text-anchor="middle" fill="white" font-size="9" font-weight="700" font-family="ui-sans-serif,sans-serif">3</text>
  <!-- Settings -->
  <text x="1180" y="65" text-anchor="middle" fill="#71717a" font-size="15">⚙</text>

  <!-- ══ WEBPAGE BACKGROUND ══ -->
  <rect x="0" y="80" width="880" height="560" fill="url(#pageBg)"/>

  <!-- ══ WEBPAGE NAV ══ -->
  <rect x="0" y="80" width="880" height="56" fill="white"/>
  <line x1="0" y1="135" x2="880" y2="135" stroke="#f0f0f0" stroke-width="1"/>
  <rect x="36" y="94" width="28" height="28" rx="8" fill="#4f46e5"/>
  <text x="50" y="113" text-anchor="middle" fill="white" font-size="13">⚡</text>
  <text x="74" y="113" fill="#111827" font-size="15" font-weight="700" font-family="ui-sans-serif,sans-serif">FlowCraft</text>
  <text x="220" y="113" fill="#6b7280" font-size="13" font-family="ui-sans-serif,sans-serif">Features</text>
  <text x="306" y="113" fill="#6b7280" font-size="13" font-family="ui-sans-serif,sans-serif">Pricing</text>
  <text x="384" y="113" fill="#6b7280" font-size="13" font-family="ui-sans-serif,sans-serif">Customers</text>
  <rect x="732" y="94" width="110" height="30" rx="8" fill="#4f46e5"/>
  <text x="787" y="113" text-anchor="middle" fill="white" font-size="12" font-weight="500" font-family="ui-sans-serif,sans-serif">Get started free</text>

  <!-- ══ HERO SECTION ══ -->
  <!-- Badge pill -->
  <rect x="244" y="152" width="252" height="26" rx="13" fill="#eef2ff"/>
  <text x="370" y="169" text-anchor="middle" fill="#4f46e5" font-size="12" font-weight="500" font-family="ui-sans-serif,sans-serif">★  Rated #1 workflow platform</text>

  <!-- SELECTED H1 element — purple highlight box -->
  <rect x="44" y="190" width="792" height="102" rx="2" fill="rgba(139,92,246,0.07)" stroke="#8b5cf6" stroke-width="2" stroke-dasharray="0"/>
  <!-- Selection label tag -->
  <rect x="44" y="169" width="136" height="22" rx="3" fill="#8b5cf6"/>
  <text x="112" y="184" text-anchor="middle" fill="white" font-size="11" font-family="ui-monospace,monospace">h1  ·  .text-6xl</text>

  <!-- Headline text lines -->
  <text x="68" y="240" fill="#111827" font-size="46" font-weight="800" font-family="ui-sans-serif,sans-serif">Automate anything.</text>
  <text x="68" y="285" fill="#4f46e5" font-size="46" font-weight="800" font-family="ui-sans-serif,sans-serif">Ship faster.</text>

  <!-- Subheadline -->
  <text x="68" y="324" fill="#6b7280" font-size="17" font-family="ui-sans-serif,sans-serif">Connect your apps, automate workflows, and</text>
  <text x="68" y="346" fill="#6b7280" font-size="17" font-family="ui-sans-serif,sans-serif">eliminate all manual work.</text>

  <!-- CTA buttons -->
  <rect x="68" y="366" width="166" height="44" rx="12" fill="#4f46e5"/>
  <text x="151" y="392" text-anchor="middle" fill="white" font-size="14" font-weight="600" font-family="ui-sans-serif,sans-serif">Start for free →</text>
  <rect x="248" y="366" width="142" height="44" rx="12" fill="white" stroke="#d1d5db" stroke-width="1"/>
  <text x="319" y="392" text-anchor="middle" fill="#374151" font-size="14" font-weight="600" font-family="ui-sans-serif,sans-serif">Watch demo</text>

  <!-- Feature cards (bottom portion of page) -->
  <rect x="36" y="440" width="258" height="110" rx="16" fill="white" stroke="#e5e7eb" stroke-width="1"/>
  <rect x="52" y="456" width="36" height="36" rx="10" fill="#fef9c3"/>
  <text x="70" y="479" text-anchor="middle" fill="#ca8a04" font-size="18">⚡</text>
  <text x="100" y="472" fill="#111827" font-size="13" font-weight="600" font-family="ui-sans-serif,sans-serif">Lightning Fast</text>
  <text x="52" y="494" fill="#6b7280" font-size="11" font-family="ui-sans-serif,sans-serif">Automate repetitive tasks</text>
  <text x="52" y="510" fill="#6b7280" font-size="11" font-family="ui-sans-serif,sans-serif">in minutes, not months.</text>

  <rect x="312" y="440" width="258" height="110" rx="16" fill="white" stroke="#e5e7eb" stroke-width="1"/>
  <rect x="328" y="456" width="36" height="36" rx="10" fill="#dbeafe"/>
  <text x="346" y="479" text-anchor="middle" fill="#2563eb" font-size="18">🛡</text>
  <text x="376" y="472" fill="#111827" font-size="13" font-weight="600" font-family="ui-sans-serif,sans-serif">Enterprise Security</text>
  <text x="328" y="494" fill="#6b7280" font-size="11" font-family="ui-sans-serif,sans-serif">SOC 2 certified, end-to-end</text>
  <text x="328" y="510" fill="#6b7280" font-size="11" font-family="ui-sans-serif,sans-serif">encrypted by default.</text>

  <rect x="588" y="440" width="258" height="110" rx="16" fill="white" stroke="#e5e7eb" stroke-width="1"/>
  <rect x="604" y="456" width="36" height="36" rx="10" fill="#dcfce7"/>
  <text x="622" y="479" text-anchor="middle" fill="#16a34a" font-size="18">📊</text>
  <text x="652" y="472" fill="#111827" font-size="13" font-weight="600" font-family="ui-sans-serif,sans-serif">Real-Time Analytics</text>
  <text x="604" y="494" fill="#6b7280" font-size="11" font-family="ui-sans-serif,sans-serif">Deep insights into every</text>
  <text x="604" y="510" fill="#6b7280" font-size="11" font-family="ui-sans-serif,sans-serif">workflow automatically.</text>

  <!-- Mouse cursor near selected element -->
  <polygon points="460,258 460,278 464,274 467,282 470,281 467,273 474,273" fill="#7c3aed" opacity="0.85"/>

  <!-- ══ RIGHT EDIT PANEL ══ -->
  <rect x="880" y="80" width="400" height="560" fill="#18181b"/>
  <line x1="880" y1="80" x2="880" y2="640" stroke="#3f3f46" stroke-width="1"/>

  <!-- Panel header -->
  <rect x="880" y="80" width="400" height="58" fill="#1f1f23"/>
  <line x1="880" y1="138" x2="1280" y2="138" stroke="#27272a" stroke-width="1"/>
  <text x="900" y="105" fill="white" font-size="14" font-weight="600" font-family="ui-sans-serif,sans-serif">Edit Element</text>
  <text x="900" y="124" fill="#71717a" font-size="10" font-family="ui-monospace,monospace">h1:nth-child(1)  ·  .text-6xl</text>
  <text x="1265" y="116" text-anchor="middle" fill="#52525b" font-size="16" font-family="ui-sans-serif,sans-serif">✕</text>

  <!-- Classes -->
  <text x="900" y="160" fill="#52525b" font-size="10" font-family="ui-sans-serif,sans-serif" letter-spacing="0.05em">TAILWIND CLASSES</text>
  <rect x="900" y="168" width="72" height="20" rx="4" fill="#27272a"/><text x="936" y="182" text-anchor="middle" fill="#a1a1aa" font-size="10" font-family="ui-monospace,monospace">text-6xl</text>
  <rect x="980" y="168" width="90" height="20" rx="4" fill="#27272a"/><text x="1025" y="182" text-anchor="middle" fill="#a1a1aa" font-size="10" font-family="ui-monospace,monospace">font-extrabold</text>
  <rect x="1078" y="168" width="86" height="20" rx="4" fill="#27272a"/><text x="1121" y="182" text-anchor="middle" fill="#a1a1aa" font-size="10" font-family="ui-monospace,monospace">text-gray-900</text>
  <rect x="900" y="194" width="94" height="20" rx="4" fill="#27272a"/><text x="947" y="208" text-anchor="middle" fill="#a1a1aa" font-size="10" font-family="ui-monospace,monospace">leading-tight</text>
  <rect x="1002" y="194" width="90" height="20" rx="4" fill="#27272a"/><text x="1047" y="208" text-anchor="middle" fill="#a1a1aa" font-size="10" font-family="ui-monospace,monospace">tracking-tight</text>

  <!-- Prompt label -->
  <text x="900" y="240" fill="#52525b" font-size="10" font-family="ui-sans-serif,sans-serif" letter-spacing="0.05em">DESCRIBE YOUR CHANGE</text>

  <!-- Textarea with typed prompt -->
  <rect x="900" y="248" width="360" height="78" rx="8" fill="#27272a" stroke="#4c1d95" stroke-width="1.5"/>
  <text x="916" y="270" fill="white" font-size="13" font-family="ui-sans-serif,sans-serif">Make this heading larger, change</text>
  <text x="916" y="289" fill="white" font-size="13" font-family="ui-sans-serif,sans-serif">color to indigo, and add a</text>
  <text x="916" y="308" fill="white" font-size="13" font-family="ui-sans-serif,sans-serif">subtle gradient text effect</text>

  <!-- Divider -->
  <line x1="900" y1="348" x2="1260" y2="348" stroke="#27272a" stroke-width="1"/>

  <!-- Agent steps -->
  <text x="900" y="366" fill="#52525b" font-size="10" font-family="ui-sans-serif,sans-serif" letter-spacing="0.05em">AGENT STEPS</text>
  <rect x="900" y="374" width="64" height="18" rx="9" fill="#0f0f2a"/>
  <text x="932" y="387" text-anchor="middle" fill="#6366f1" font-size="9" font-family="ui-sans-serif,sans-serif">✓ analyze</text>
  <rect x="972" y="374" width="50" height="18" rx="9" fill="#0f0f2a"/>
  <text x="997" y="387" text-anchor="middle" fill="#6366f1" font-size="9" font-family="ui-sans-serif,sans-serif">✓ plan</text>
  <rect x="1030" y="374" width="70" height="18" rx="9" fill="#0f0f2a"/>
  <text x="1065" y="387" text-anchor="middle" fill="#6366f1" font-size="9" font-family="ui-sans-serif,sans-serif">✓ generate</text>

  <!-- AI explanation card -->
  <rect x="900" y="402" width="360" height="68" rx="8" fill="#0f0f2a" stroke="#2d2d6b" stroke-width="1"/>
  <text x="916" y="422" fill="#a5b4fc" font-size="12" font-family="ui-sans-serif,sans-serif">Changed text-6xl → text-7xl, replaced</text>
  <text x="916" y="440" fill="#a5b4fc" font-size="12" font-family="ui-sans-serif,sans-serif">text-gray-900 with text-indigo-600,</text>
  <text x="916" y="458" fill="#a5b4fc" font-size="12" font-family="ui-sans-serif,sans-serif">added bg-gradient-to-r bg-clip-text.</text>

  <!-- Changes bullets -->
  <text x="916" y="490" fill="#4ade80" font-size="11" font-family="ui-sans-serif,sans-serif">✓  text-6xl  →  text-7xl</text>
  <text x="916" y="508" fill="#4ade80" font-size="11" font-family="ui-sans-serif,sans-serif">✓  text-gray-900  →  text-indigo-600</text>
  <text x="916" y="526" fill="#4ade80" font-size="11" font-family="ui-sans-serif,sans-serif">✓  Added gradient text effect</text>

  <!-- Preview note -->
  <rect x="900" y="540" width="360" height="28" rx="6" fill="#1e1b4b" stroke="#4338ca" stroke-width="1"/>
  <text x="1080" y="558" text-anchor="middle" fill="#a5b4fc" font-size="11" font-family="ui-sans-serif,sans-serif">👁  Preview active — changes visible on page</text>

  <!-- Apply / Reject buttons -->
  <rect x="900" y="580" width="170" height="38" rx="8" fill="#27272a"/>
  <text x="985" y="603" text-anchor="middle" fill="#d4d4d8" font-size="13" font-family="ui-sans-serif,sans-serif">✕  Reject</text>
  <rect x="1078" y="580" width="182" height="38" rx="8" fill="#15803d"/>
  <text x="1169" y="603" text-anchor="middle" fill="white" font-size="13" font-weight="500" font-family="ui-sans-serif,sans-serif">✓  Apply Change</text>
</svg>
